<svg width="80" height="74" viewBox="0 0 80 74" fill="none" xmlns="http://www.w3.org/2000/svg">
<g clip-path="url(#clip0_1_1215)">
<path d="M78.1468 0L43.8196 25.0405L50.203 10.2834L78.1468 0Z" fill="#E17726"/>
<path d="M1.93478 0.029541L29.8038 10.2852L35.8651 25.2358L1.93478 0.029541ZM64.3313 53.2542L79.5035 53.5389L74.201 71.2973L55.6876 66.2722L64.3313 53.2542ZM15.6685 53.2542L24.2801 66.2722L5.7979 71.2976L0.527588 53.5389L15.6685 53.2542Z" fill="#E27625"/>
<path d="M35.0406 21.4276L35.6606 41.1704L17.1072 40.3382L22.3847 32.4889L22.4516 32.4135L35.0406 21.4276ZM44.7665 21.2073L57.5478 32.4141L57.614 32.4893L62.8915 40.3385L44.3422 41.1704L44.7665 21.2073ZM24.8231 53.3115L34.9537 61.0933L23.1856 66.6945L24.8231 53.3115ZM55.1781 53.3103L56.7815 66.6949L45.0462 61.0927L55.1781 53.3103Z" fill="#E27625"/>
<path d="M45.3058 60.3598L57.2143 66.0445L46.1371 71.2345L46.2521 67.8043L45.3058 60.3598ZM34.6912 60.3623L33.7821 67.7482L33.8568 71.2305L22.7537 66.0445L34.6912 60.3623Z" fill="#D5BFB2"/>
<path d="M31.2522 43.7472L34.3641 50.1947L23.7694 47.1349L31.2522 43.7472ZM48.7475 43.7478L56.2657 47.1349L45.6363 50.1938L48.7475 43.7478Z" fill="#233447"/>
<path d="M25.6336 53.2456L23.9211 67.1216L14.7421 53.5491L25.6336 53.2456ZM54.368 53.2459L65.2599 53.5491L56.0464 67.1222L54.368 53.2459ZM63.1605 39.5536L55.2339 47.5178L49.1224 44.7644L46.1964 50.8287L44.2783 40.4005L63.1605 39.5536ZM16.8364 39.5536L35.7224 40.4005L33.8039 50.8287L30.8774 44.7654L24.7983 47.5181L16.8364 39.5536Z" fill="#CC6228"/>
<path d="M16.3014 37.9193L25.2695 46.8909L25.5801 55.748L16.3014 37.9193ZM63.7067 37.9033L54.4111 55.7637L54.7611 46.8909L63.7067 37.9033ZM35.283 38.4659L35.6439 40.7056L36.5358 46.2853L35.9623 63.4223L33.2514 49.6557L33.2505 49.5133L35.283 38.4659ZM44.7114 38.4347L46.7492 49.5133L46.7483 49.6557L44.0305 63.4568L43.923 60.0047L43.4989 46.1836L44.7114 38.4347Z" fill="#E27525"/>
<path d="M55.5582 46.5343L55.2548 54.2295L45.7941 61.4962L43.8816 60.1641L46.0254 49.2781L55.5582 46.5343ZM24.4735 46.5343L33.9732 49.2781L36.1169 60.1641L34.2044 61.4962L24.7435 54.2289L24.4735 46.5343Z" fill="#F5841F"/>
<path d="M20.9429 64.3451L33.0466 69.999L32.9954 67.5846L34.0082 66.7081H45.9876L47.0369 67.5815L46.9594 69.9941L58.9866 64.3593L53.1341 69.1271L46.0576 73.9187H33.911L26.8391 69.1074L20.9429 64.3451Z" fill="#C0AC9D"/>
<path d="M44.4396 59.6072L46.1508 60.7991L47.1536 68.6872L45.7024 67.4793H34.3036L32.8799 68.7116L33.8499 60.7998L35.5618 59.6072H44.4396Z" fill="#161616"/>
<path d="M75.8794 0.693222L80 12.88L77.4266 25.2023L79.2591 26.5957L76.7794 28.4609L78.6431 29.8799L76.1753 32.0953L77.6903 33.177L73.6697 37.8062L57.1791 33.0725L57.0363 32.997L45.1528 23.1144L75.8794 0.693222ZM4.12063 0.693222L34.8475 23.1144L22.9638 32.997L22.8209 33.0725L6.33031 37.8062L2.30969 33.177L3.82344 32.0962L1.35719 29.8799L3.21719 28.4624L0.700312 26.592L2.60188 25.1977L0 12.8806L4.12063 0.693222Z" fill="#763E1A"/>
<path d="M55.8628 31.5331L73.3356 36.5484L79.0122 53.7966H64.0359L53.7172 53.9247L61.2216 39.5041L55.8628 31.5331ZM23.1178 31.5331L17.7581 39.5041L25.2634 53.9247L14.9494 53.7966H0L5.64469 36.5487L23.1178 31.5331ZM50.5478 9.69698L45.6606 22.71L44.6234 40.2891L44.2266 45.7991L44.195 59.8747H34.7853L34.7547 45.8256L34.3566 40.2845L33.3191 22.71L28.4325 9.69698H50.5478Z" fill="#F5841F"/>
</g>
<defs>
<clipPath id="clip0_1_1215">
<rect width="80" height="73.9394" fill="white"/>
</clipPath>
</defs>
</svg>
