<svg width="78" height="78" viewBox="0 0 78 78" fill="none" xmlns="http://www.w3.org/2000/svg">
<g clip-path="url(#clip0_1_1188)">
<path d="M15.9673 24.4368C28.6911 11.986 49.3123 11.986 62.0328 24.4368L63.5636 25.935C63.7147 26.0814 63.8349 26.2566 63.917 26.4504C63.9991 26.6441 64.0414 26.8523 64.0414 27.0628C64.0414 27.2732 63.9991 27.4814 63.917 27.6752C63.8349 27.8689 63.7147 28.0441 63.5636 28.1905L58.3278 33.3158C58.1746 33.467 57.9679 33.5518 57.7526 33.5518C57.5373 33.5518 57.3306 33.467 57.1773 33.3158L55.0681 31.2553C46.1956 22.568 31.8078 22.568 22.9353 31.2553L20.6798 33.4653C20.5252 33.6152 20.3183 33.699 20.103 33.699C19.8876 33.699 19.6807 33.6152 19.5261 33.4653L14.2903 28.3368C14.1393 28.1907 14.0191 28.0157 13.9371 27.8222C13.855 27.6288 13.8128 27.4208 13.8128 27.2106C13.8128 27.0005 13.855 26.7925 13.9371 26.599C14.0191 26.4056 14.1393 26.2306 14.2903 26.0845L15.9673 24.4368ZM72.8618 35.0415L77.5223 39.6045C77.6735 39.7509 77.7937 39.9261 77.8758 40.1199C77.9579 40.3136 78.0002 40.5218 78.0002 40.7323C78.0002 40.9427 77.9579 41.1509 77.8758 41.3447C77.7937 41.5384 77.6735 41.7136 77.5223 41.86L56.5078 62.4358C56.1995 62.7361 55.7861 62.9042 55.3557 62.9042C54.9253 62.9042 54.5119 62.7361 54.2036 62.4358L39.2926 47.8335C39.2158 47.7569 39.1118 47.7139 39.0033 47.7139C38.8949 47.7139 38.7909 47.7569 38.7141 47.8335L23.7998 62.4358C23.4915 62.7361 23.0781 62.9042 22.6477 62.9042C22.2173 62.9042 21.8039 62.7361 21.4956 62.4358L0.477827 41.86C0.326666 41.7136 0.20647 41.5384 0.124385 41.3447C0.0422997 41.1509 0 40.9427 0 40.7323C0 40.5218 0.0422997 40.3136 0.124385 40.1199C0.20647 39.9261 0.326666 39.7509 0.477827 39.6045L5.13833 35.0415C5.44662 34.7411 5.86003 34.573 6.29045 34.573C6.72088 34.573 7.13428 34.7411 7.44258 35.0415L22.3568 49.6438C22.5193 49.7998 22.7761 49.7998 22.9353 49.6438L37.8496 35.0415C38.1579 34.7411 38.5713 34.573 39.0017 34.573C39.4321 34.573 39.8455 34.7411 40.1538 35.0415L55.0681 49.6438C55.2306 49.7998 55.4841 49.7998 55.6466 49.6438L70.5608 35.0415C70.8686 34.7413 71.2814 34.5733 71.7113 34.5733C72.1412 34.5733 72.5541 34.7413 72.8618 35.0415Z" fill="#3A70FB"/>
</g>
<defs>
<clipPath id="clip0_1_1188">
<rect width="78" height="78" fill="white"/>
</clipPath>
</defs>
</svg>
