<svg width="40" height="40" viewBox="0 0 40 40" fill="none" xmlns="http://www.w3.org/2000/svg">
<rect width="3.47826" height="33.0435" transform="matrix(-1 0 0 1 3.47852 3.47824)" fill="#232330"/>
<rect width="33.0435" height="40" transform="translate(3.47852)" fill="#232330"/>
<rect width="33.0435" height="33.0435" transform="translate(3.47852 3.47824)" fill="#151623"/>
<rect x="10.0002" y="26" width="4" height="4" fill="white"/>
<rect width="4" height="4" transform="matrix(-1 0 0 1 30.0002 26)" fill="white"/>
<rect x="14.0002" y="22" width="4" height="4" fill="white"/>
<rect width="4" height="4" transform="matrix(-1 0 0 1 26.0002 22)" fill="white"/>
<rect x="18.0002" y="18" width="4" height="4" fill="white"/>
<rect width="4" height="4" transform="matrix(-1 0 0 1 22.0002 18)" fill="white"/>
<rect x="22.0002" y="14" width="4" height="4" fill="white"/>
<rect width="4" height="4" transform="matrix(-1 0 0 1 18.0002 14)" fill="white"/>
<rect x="26.0002" y="9.99997" width="4" height="4" fill="white"/>
<rect width="4" height="4" transform="matrix(-1 0 0 1 14.0002 9.99997)" fill="white"/>
<rect width="3.47826" height="33.0435" transform="matrix(-1 0 0 1 40 3.47824)" fill="#232330"/>
</svg>
