<svg width="176" height="176" viewBox="0 0 176 176" fill="none" xmlns="http://www.w3.org/2000/svg">
<g opacity="0.2">
<path d="M44 88H51.3333V95.3333H95.3333V88H102.667V80.6667H110V36.6667H102.667V29.3333H95.3333V22H51.3333V29.3333H44V36.6667H36.6667V80.6667H44V88ZM51.3333 51.3333H58.6667V44H66V36.6667H80.6667V44H88V51.3333H95.3333V66H88V73.3333H80.6667V80.6667H66V73.3333H58.6667V66H51.3333V51.3333Z" fill="#8F50AD"/>
<path d="M117.333 110H110V102.667H29.3333V110H22V117.333H14.6667V154H29.3333V132H36.6667V124.667H44V117.333H95.3333V124.667H102.667V132H110V154H124.667V117.333H117.333V110Z" fill="#8F50AD"/>
<path d="M132 88H139.333V80.6667H146.667V36.6667H139.333V29.3333H132V22H124.667H117.333V44H124.667V51.3333H132V58.6667V66H124.667V73.3333H117.333V95.3333H132V88Z" fill="#8F50AD"/>
<path d="M154 117.333V110H146.667V102.667H132V124.667H139.333V132H146.667V154H161.333V117.333H154Z" fill="#8F50AD"/>
</g>
</svg>
