<svg width="134" height="134" viewBox="0 0 134 134" fill="none" xmlns="http://www.w3.org/2000/svg">
<g opacity="0.2">
<rect x="39.0837" width="55.8333" height="8.375" fill="#69AE6C"/>
<rect x="39.0837" y="44.6666" width="55.8333" height="8.375" fill="#69AE6C"/>
<rect x="39.0837" y="125.625" width="55.8333" height="8.375" fill="#69AE6C"/>
<rect x="19.5413" y="5.58343" width="19.5417" height="8.375" fill="#69AE6C"/>
<rect x="19.5413" y="39.0834" width="19.5417" height="8.375" fill="#69AE6C"/>
<rect x="19.5413" y="120.042" width="19.5417" height="8.375" fill="#69AE6C"/>
<rect x="94.9163" y="5.58343" width="19.5417" height="8.375" fill="#69AE6C"/>
<rect x="94.9163" y="39.0834" width="19.5417" height="8.375" fill="#69AE6C"/>
<rect x="94.9163" y="120.042" width="19.5417" height="8.375" fill="#69AE6C"/>
<rect x="5.58372" y="13.9584" width="13.9583" height="8.375" fill="#69AE6C"/>
<rect x="5.58372" y="30.7084" width="13.9583" height="8.375" fill="#69AE6C"/>
<rect x="5.58372" y="111.667" width="13.9583" height="8.375" fill="#69AE6C"/>
<rect x="114.459" y="13.9584" width="13.9583" height="8.375" fill="#69AE6C"/>
<rect x="114.459" y="30.7084" width="13.9583" height="8.375" fill="#69AE6C"/>
<rect x="114.459" y="111.667" width="13.9583" height="8.375" fill="#69AE6C"/>
<rect y="22.3334" width="8.375" height="8.375" fill="#69AE6C"/>
<rect y="30.7084" width="8.375" height="80.9583" fill="#69AE6C"/>
<rect x="125.625" y="30.7084" width="8.375" height="80.9583" fill="#69AE6C"/>
<rect x="125.625" y="22.3334" width="8.375" height="8.375" fill="#69AE6C"/>
<rect x="125.625" y="103.292" width="8.375" height="8.375" fill="#69AE6C"/>
<rect x="39.0821" y="100.5" width="55.8333" height="8.375" fill="#69AE6C"/>
<rect x="19.5408" y="94.917" width="19.5417" height="8.375" fill="#69AE6C"/>
<rect x="94.9158" y="94.917" width="19.5417" height="8.375" fill="#69AE6C"/>
<rect x="5.5821" y="86.542" width="13.9583" height="8.375" fill="#69AE6C"/>
<rect x="114.457" y="86.542" width="13.9583" height="8.375" fill="#69AE6C"/>
<rect x="39.0821" y="72.5834" width="55.8333" height="8.375" fill="#69AE6C"/>
<rect x="19.5408" y="67" width="19.5417" height="8.375" fill="#69AE6C"/>
<rect x="94.9158" y="67" width="19.5417" height="8.375" fill="#69AE6C"/>
<rect x="5.5821" y="58.625" width="13.9583" height="8.375" fill="#69AE6C"/>
<rect x="114.457" y="58.625" width="13.9583" height="8.375" fill="#69AE6C"/>
</g>
</svg>
